<?xml version="1.0" encoding="utf-8"?>
<!-- Generator: Adobe Illustrator 18.1.1, SVG Export Plug-In . SVG Version: 6.00 Build 0)  -->
<svg version="1.1" id="Слой_1" xmlns="http://www.w3.org/2000/svg" xmlns:xlink="http://www.w3.org/1999/xlink" x="0px" y="0px"
viewBox="85.8 41.7 328.3 416.7" enable-background="new 85.8 41.7 328.3 416.7" xml:space="preserve">
<path d="M251.7,41.7H250L85.8,59.2v301.7L250,458.3l164.2-97.5V59.2L251.7,41.7L251.7,41.7z M393.3,348.3l-143.3,85l-143.3-85V225
l142.5,85v15l-97.5-58.3v15l98.3,59.2v15.8l-98.3-58.3v15l98.3,58.3l99.2-59.2v-63.3l44.2-26.7V348.3z M392.5,206.7L353.3,230
L335,240.8L249.2,190v15l73.3,44.2h-0.8L320,250l-10.8,5.8L248.3,220v15l48.3,28.3l-11.7,7.5l-35.8-21.7v15l24.2,14.2l-24.2,14.2
l-141.7-84.2l141.7-85L392.5,206.7L392.5,206.7z M393.3,191.7l-144.2-85l-142.5,85V78.3l143.3-15l143.3,15L393.3,191.7L393.3,191.7z
"/>
</svg>
