<?xml version="1.0" encoding="utf-8"?>
<!-- Generator: Adobe Illustrator 18.1.1, SVG Export Plug-In . SVG Version: 6.00 Build 0)  -->
<svg version="1.1" id="Слой_1" xmlns="http://www.w3.org/2000/svg" xmlns:xlink="http://www.w3.org/1999/xlink" x="0px" y="0px"
viewBox="0 0 500 500" enable-background="new 0 0 500 500" xml:space="preserve">
<g>
<path fill="#FFFFFF" d="M302.4,351.6c0,29,22.6,53.2,50,53.2c27.4,0,50-24.2,50-53.2c0-29-22.6-53.2-50-53.2
C325,298.4,302.4,322.6,302.4,351.6z M378.2,351.6c0,14.5-11.3,27.4-25.8,27.4c-14.5,0-25.8-12.9-25.8-27.4
c0-14.5,11.3-27.4,25.8-27.4C366.9,324.2,378.2,335.5,378.2,351.6z"/>
<path fill="#FFFFFF" d="M204,109.7c29,0,51.6-24.2,51.6-54.8S233,0,204,0s-51.6,24.2-51.6,54.8S175,109.7,204,109.7z M204,21
c17.7,0,30.6,14.5,30.6,33.9c0,17.7-14.5,33.9-30.6,33.9c-17.7,0-30.6-14.5-30.6-33.9C173.4,37.1,186.3,21,204,21z"/>
<ellipse fill="#FFFFFF" cx="149.2" cy="324.2" rx="37.1" ry="40.3"/>
<path fill="#FFFFFF" d="M152.4,259.7c40.3,3.2,79-14.5,104.8-40.3s38.7-30.6,58.1-33.9c46.8-8.1,74.2,11.3,90.3,22.6
c17.7,19.4,22.6,14.5,27.4,8.1c9.7-12.9-3.2-22.6-19.4-33.9c-50-37.1-100-24.2-100-24.2c-19.4,4.8-38.7,6.5-75.8,41.9
c-37.1,35.5-64.5,33.9-91.9,32.3s-56.5-27.4-61.3-33.9c-6.5-6.5-16.1-1.6-19.4,1.6c-3.2,4.8-3.2,11.3,1.6,17.7
C91.1,238.7,112.1,254.8,152.4,259.7z"/>
<path fill="#FFFFFF" d="M478.2,432.3V130.6c0-9.7-6.5-11.3-8.1-11.3h-8.1c-8.1,0-8.1,9.7-8.1,11.3c0,0,0,0,0,1.6l0,0
c0,58.1,0,295.2,0,298.4c0,4.8-1.6,19.4-12.9,30.6c-12.9,11.3-25.8,9.7-25.8,9.7s-325.8,0-333.9,0c-6.5-1.6-16.1-3.2-25.8-16.1
c-9.7-12.9-8.1-29-8.1-29V133.9c0-12.9-11.3-12.9-11.3-12.9h-4.8c-8.1,0-9.7,9.7-9.7,12.9c0,56.5,0,280.6,0,298.4
c0,21,8.1,38.7,24.2,53.2C63.7,500,84.7,500,84.7,500s317.7,0,332.3,0c14.5,0,32.3-6.5,46.8-25.8
C479.8,456.5,478.2,432.3,478.2,432.3z"/>
</g>
</svg>
