<?xml version="1.0" encoding="utf-8"?>
<!-- Generator: Adobe Illustrator 18.1.1, SVG Export Plug-In . SVG Version: 6.00 Build 0)  -->
<svg version="1.1" id="Слой_1" xmlns="http://www.w3.org/2000/svg" xmlns:xlink="http://www.w3.org/1999/xlink" x="0px" y="0px"
viewBox="-238 240 22 22" enable-background="new -238 240 22 22" xml:space="preserve">
<g>
<path d="M-225.2,260.4h-3.7c-0.3,0-0.5-0.2-0.5-0.5v-6.6h-2.2c-0.3,0-0.5-0.2-0.5-0.5V249c0-0.3,0.2-0.5,0.5-0.5
h2.2v-2.1c0-1.3,0.5-2.6,1.5-3.6c1-1,2.3-1.5,3.6-1.5h2.8c0.3,0,0.5,0.2,0.5,0.5v3.6c0,0.3-0.2,0.5-0.5,0.5h-2.8
c-0.1,0-0.2,0-0.3,0.1c-0.1,0.1-0.1,0.2-0.1,0.2v2.1h3.1c0.2,0,0.3,0.1,0.4,0.2c0.1,0.1,0.1,0.3,0.1,0.5l-0.9,3.6
c-0.1,0.2-0.3,0.4-0.5,0.4h-2.2v6.6C-224.6,260.1-224.9,260.4-225.2,260.4z M-228.3,259.3h2.6v-6.6c0-0.3,0.2-0.5,0.5-0.5h2.3
l0.6-2.5h-3c-0.3,0-0.5-0.2-0.5-0.5v-2.7c0-0.4,0.2-0.8,0.4-1c0.3-0.3,0.6-0.4,1-0.4h2.2v-2.5h-2.2c-1.1,0-2.1,0.4-2.9,1.2
c-0.8,0.7-1.2,1.7-1.2,2.8v2.7c0,0.3-0.2,0.5-0.5,0.5h-2.2v2.5h2.2c0.3,0,0.5,0.2,0.5,0.5V259.3z"/>
</g>
</svg>
