<?xml version="1.0" encoding="utf-8"?>
<!-- Generator: Adobe Illustrator 18.1.1, SVG Export Plug-In . SVG Version: 6.00 Build 0)  -->
<svg version="1.1" id="Слой_1" xmlns="http://www.w3.org/2000/svg" xmlns:xlink="http://www.w3.org/1999/xlink" x="0px" y="0px"
	 viewBox="0 0 500 500" enable-background="new 0 0 500 500" xml:space="preserve">
<g>
	<path fill="#FFFFFF" d="M239.4,258.9v-57.6v-54.5c0-6.1,4.5-12.1,12.1-12.1c6.1,0,12.1,4.5,12.1,12.1v54.5v57.6v7.6v4.5
		c0,6.1-6.1,12.1-12.1,12.1c-6.1,0-12.1-4.5-12.1-12.1v-4.5V258.9z"/>
	<path fill="#FFFFFF" d="M350,168c0,9.1-7.6,16.7-16.7,16.7s-16.7-7.6-16.7-16.7c0-9.1,7.6-16.7,16.7-16.7S350,158.9,350,168z"/>
	<path fill="#FFFFFF" d="M168.2,151.3c-9.1,0-16.7,7.6-16.7,16.7c0,9.1,7.6,16.7,16.7,16.7c9.1,0,16.7-7.6,16.7-16.7
		C184.8,158.9,177.3,151.3,168.2,151.3z"/>
	<path fill="#FFFFFF" d="M168.2,349.8c-9.1,0-16.7,7.6-16.7,16.7s7.6,16.7,16.7,16.7c9.1,0,16.7-7.6,16.7-16.7
		S177.3,349.8,168.2,349.8z"/>
	<path fill="#FFFFFF" d="M251.5,381.6c-9.1,0-16.7,7.6-16.7,16.7s7.6,16.7,16.7,16.7c9.1,0,16.7-7.6,16.7-16.7
		S260.6,381.6,251.5,381.6z"/>
	<path fill="#FFFFFF" d="M119.7,249.8c-9.1,0-16.7,7.6-16.7,16.7s7.6,16.7,16.7,16.7c9.1,0,16.7-7.6,16.7-16.7
		S128.8,249.8,119.7,249.8z"/>
	<path fill="#FFFFFF" d="M383.3,249.8c-9.1,0-16.7,7.6-16.7,16.7s7.6,16.7,16.7,16.7s16.7-7.6,16.7-16.7S392.4,249.8,383.3,249.8z"
		/>
	<path fill="#FFFFFF" d="M333.3,349.8c-9.1,0-16.7,7.6-16.7,16.7s7.6,16.7,16.7,16.7s16.7-7.6,16.7-16.7S342.4,349.8,333.3,349.8z"
		/>
	<path fill="#FFFFFF" d="M368.2,433.1c-6.1-6.1-6.1-16.7,1.5-24.2c39.4-34.8,65.2-87.9,65.2-145.5c0-102.3-77.6-184.9-174.2-190.6
		V51.3h95.5c6.1,0,12.1-4.5,12.1-12.1s-4.5-12.1-12.1-12.1h-95.5h-22.7h-95.5c-6.1,0-12.1,4.5-12.1,12.1s4.5,12.1,12.1,12.1h95.5
		v21.6c-97.3,6.4-172.7,88.6-172.7,190.5c0,57.6,24.2,109.1,63.6,143.9c7.6,6.1,7.6,16.7,1.5,22.7l-21.2,22.7
		c-4.5,4.5-4.5,10.6,0,15.2c4.5,4.5,10.6,4.5,15.2,0l28.8-28.8c4.5-4.5,12.1-6.1,18.2-3c24.2,12.1,51.5,18.2,80.3,18.2
		c27.3,0,54.5-6.1,77.3-16.7c6.1-3,13.6-1.5,18.2,3l27.3,28.8c4.5,4.5,10.6,4.5,15.2,0c4.5-4.5,4.5-10.6,0-15.2L368.2,433.1z
		 M251.5,433.1c-90.9,0-165.2-75.8-165.2-169.7c0-93.9,74.2-169.7,165.2-169.7s165.2,75.8,165.2,169.7S342.4,433.1,251.5,433.1z"/>
</g>
</svg>
