<?xml version="1.0" encoding="utf-8"?>
<!-- Generator: Adobe Illustrator 18.1.1, SVG Export Plug-In . SVG Version: 6.00 Build 0)  -->
<svg version="1.1" id="Слой_1" xmlns="http://www.w3.org/2000/svg" xmlns:xlink="http://www.w3.org/1999/xlink" x="0px" y="0px"
viewBox="0 0 500 500" enable-background="new 0 0 500 500" xml:space="preserve">
<g>
<path fill="#FFFFFF" d="M421.7,103.4C405,53.4,385,20,370,5c-5-5-11.7-6.7-18.3-3.3c-6.7,3.3-10,8.3-10,15v466.7
c0,10,6.7,16.7,16.7,16.7c10,0,16.7-6.7,16.7-16.7v-150h58.3c10,0,16.7-6.7,16.7-16.7C450,225,436.7,155,421.7,103.4z M375,300V75
c5,11.7,10,23.3,15,38.3c13.3,45,25,106.7,26.7,186.7H375z"/>
<path fill="#FFFFFF" d="M216.7,0c-10,0-16.7,6.7-16.7,16.7v91.7c0,10-3.3,21.7-11.7,31.7c-6.7,6.7-15,13.3-30,16.7v-140
c0-10-6.7-16.7-16.7-16.7c-10,0-16.7,6.7-16.7,16.7v140c-15-3.3-23.3-10-30-16.7c-8.3-10-11.7-23.3-11.7-31.7V16.7
C83.3,6.7,76.7,0,66.7,0S50,6.7,50,16.7v91.7c0,15,5,36.7,20,53.3c11.7,15,30,25,55,28.3v293.3c0,10,6.7,16.7,16.7,16.7
c10,0,16.7-6.7,16.7-16.7V190c25-3.3,43.3-13.3,55-28.3c15-16.7,20-38.3,20-53.3V16.7C233.3,6.7,226.7,0,216.7,0z"/>
</g>
</svg>
