<?xml version="1.0" encoding="utf-8"?>
<!-- Generator: Adobe Illustrator 18.1.1, SVG Export Plug-In . SVG Version: 6.00 Build 0)  -->
<svg version="1.1" id="Слой_1" xmlns="http://www.w3.org/2000/svg" xmlns:xlink="http://www.w3.org/1999/xlink" x="0px" y="0px"
	 viewBox="0 0 500 500" enable-background="new 0 0 500 500" xml:space="preserve">
<path fill="#FFFFFF" d="M443.1,43.8c-1.6-7.8-7.8-12.5-14.1-12.5l0,0c-76.6,0-264.1,14.1-340.6,131.2
	C49.3,223.4,46.2,301.6,79,396.9c0,0,0,1.6,1.6,1.6C69.6,429.7,64.9,450,64.9,450c-1.6,7.8,3.1,17.2,10.9,18.8c1.6,0,1.6,0,3.1,0
	c6.2,0,12.5-4.7,14.1-12.5c0-1.6,37.5-162.5,170.3-256.2c6.2-4.7,7.8-14.1,4.7-21.9c-4.7-7.8-14.1-9.4-20.3-4.7
	c-75,53.1-120.3,125-148.4,182.8C80.6,284.4,85.2,225,114.9,179.7C172.7,89.1,311.8,67.2,396.2,64.1
	c-18.7,28.1-37.5,79.7-37.5,170.3c0,48.4-12.5,85.9-39.1,110.9c-40.6,40.6-107.8,43.7-156.2,40.6c-7.8,0-15.6,6.2-15.6,14.1
	s4.7,15.6,14.1,17.2c9.4,1.6,20.3,1.6,31.3,1.6c50,0,107.8-10.9,146.9-50c31.3-31.3,48.4-76.6,48.4-134.4c0-142.2,50-173.4,50-173.4
	C441.5,57.8,444.6,50,443.1,43.8z"/>
</svg>
