<?xml version="1.0" encoding="UTF-8"?><!DOCTYPE svg PUBLIC "-//W3C//DTD SVG 1.1//EN" "http://www.w3.org/Graphics/SVG/1.1/DTD/svg11.dtd"><svg xmlns="http://www.w3.org/2000/svg" xmlns:xlink="http://www.w3.org/1999/xlink"><defs>
<clipPath id="clip0">
<rect width="20" height="20" fill="white"/>
</clipPath>

<clipPath id="clip0">
<rect width="128" height="24" fill="white"/>
</clipPath>
</defs><symbol id="htmlacademy-sprite" viewBox="85.8 41.7 328.3 416.7">
<path d="M251.7,41.7H250L85.8,59.2v301.7L250,458.3l164.2-97.5V59.2L251.7,41.7L251.7,41.7z M393.3,348.3l-143.3,85l-143.3-85V225
l142.5,85v15l-97.5-58.3v15l98.3,59.2v15.8l-98.3-58.3v15l98.3,58.3l99.2-59.2v-63.3l44.2-26.7V348.3z M392.5,206.7L353.3,230
L335,240.8L249.2,190v15l73.3,44.2h-0.8L320,250l-10.8,5.8L248.3,220v15l48.3,28.3l-11.7,7.5l-35.8-21.7v15l24.2,14.2l-24.2,14.2
l-141.7-84.2l141.7-85L392.5,206.7L392.5,206.7z M393.3,191.7l-144.2-85l-142.5,85V78.3l143.3-15l143.3,15L393.3,191.7L393.3,191.7z
"/>
</symbol><symbol id="icon-email-sprite" viewBox="0 70 500 360">
<g>
<polygon points="456.6,214.5 456.6,390.8 43.4,390.8 43.4,214.5 9.2,214.5 9.2,390.8 9.2,425 43.4,425 456.6,425
482.9,425 490.8,425 490.8,214.5 	"/>
<path d="M482.9,148.7v-39.5V82.9V75H9.2v7.9v26.3v39.5l236.8,184.2L482.9,148.7z M43.4,117.1h405.3v15.8
L246.1,290.8L43.4,132.9V117.1z"/>
</g>
</symbol><symbol id="icon-facebook-sprite" viewBox="-238 240 22 22">
<g>
<path d="M-225.2,260.4h-3.7c-0.3,0-0.5-0.2-0.5-0.5v-6.6h-2.2c-0.3,0-0.5-0.2-0.5-0.5V249c0-0.3,0.2-0.5,0.5-0.5
h2.2v-2.1c0-1.3,0.5-2.6,1.5-3.6c1-1,2.3-1.5,3.6-1.5h2.8c0.3,0,0.5,0.2,0.5,0.5v3.6c0,0.3-0.2,0.5-0.5,0.5h-2.8
c-0.1,0-0.2,0-0.3,0.1c-0.1,0.1-0.1,0.2-0.1,0.2v2.1h3.1c0.2,0,0.3,0.1,0.4,0.2c0.1,0.1,0.1,0.3,0.1,0.5l-0.9,3.6
c-0.1,0.2-0.3,0.4-0.5,0.4h-2.2v6.6C-224.6,260.1-224.9,260.4-225.2,260.4z M-228.3,259.3h2.6v-6.6c0-0.3,0.2-0.5,0.5-0.5h2.3
l0.6-2.5h-3c-0.3,0-0.5-0.2-0.5-0.5v-2.7c0-0.4,0.2-0.8,0.4-1c0.3-0.3,0.6-0.4,1-0.4h2.2v-2.5h-2.2c-1.1,0-2.1,0.4-2.9,1.2
c-0.8,0.7-1.2,1.7-1.2,2.8v2.7c0,0.3-0.2,0.5-0.5,0.5h-2.2v2.5h2.2c0.3,0,0.5,0.2,0.5,0.5V259.3z"/>
</g>
</symbol><symbol id="icon-instagram-sprite" viewBox="0 0 16 16">
<path d="M7.98438 0.0625C9.31771 0.0625 10.4062 0.078125 11.25 0.109375C11.9688 0.140625 12.6094 0.265625 13.1719 0.484375C13.7135 0.692708 14.1823 0.994792 14.5781 1.39062C14.974 1.78646 15.276 2.25521 15.4844 2.79687C15.7031 3.35937 15.8281 4 15.8594 4.71875C15.8906 5.5625 15.9062 6.65104 15.9062 7.98437C15.9062 9.31771 15.8906 10.4062 15.8594 11.25C15.8281 11.9687 15.7031 12.6094 15.4844 13.1719C15.276 13.7135 14.974 14.1823 14.5781 14.5781C14.1823 14.974 13.7135 15.276 13.1719 15.4844C12.6094 15.7031 11.9688 15.8281 11.25 15.8594C10.4062 15.8906 9.31771 15.9062 7.98438 15.9062C6.65104 15.9062 5.5625 15.8906 4.71875 15.8594C4 15.8281 3.35938 15.7031 2.79688 15.4844C2.25521 15.276 1.78646 14.974 1.39062 14.5781C0.994792 14.1823 0.692708 13.7135 0.484375 13.1719C0.265625 12.6094 0.140625 11.9687 0.109375 11.25C0.078125 10.4062 0.0625 9.31771 0.0625 7.98437C0.0625 6.65104 0.078125 5.5625 0.109375 4.71875C0.140625 4 0.265625 3.35937 0.484375 2.79687C0.692708 2.25521 0.994792 1.78646 1.39062 1.39062C1.78646 0.994792 2.25521 0.692708 2.79688 0.484375C3.35938 0.265625 4 0.140625 4.71875 0.109375C5.5625 0.078125 6.65104 0.0625 7.98438 0.0625ZM7.98438 1.09375C6.59896 1.09375 5.46875 1.10937 4.59375 1.14062C4.03125 1.16146 3.51042 1.26042 3.03125 1.4375C2.28125 1.75 1.75 2.28125 1.4375 3.03125C1.26042 3.51042 1.16146 4.03125 1.14062 4.59375C1.10938 5.46875 1.09375 6.59896 1.09375 7.98437C1.09375 9.36979 1.10938 10.5 1.14062 11.375C1.16146 11.9375 1.26042 12.4583 1.4375 12.9375C1.75 13.6875 2.28125 14.2187 3.03125 14.5312C3.51042 14.7083 4.03125 14.8073 4.59375 14.8281C5.46875 14.8594 6.59896 14.875 7.98438 14.875C9.36979 14.875 10.5 14.8594 11.375 14.8281C11.9375 14.8073 12.4583 14.7083 12.9375 14.5312C13.6875 14.2187 14.2188 13.6875 14.5312 12.9375C14.7083 12.4583 14.8073 11.9375 14.8281 11.375C14.8594 10.5 14.875 9.36979 14.875 7.98437C14.875 6.59896 14.8594 5.46875 14.8281 4.59375C14.8073 4.03125 14.7083 3.51042 14.5312 3.03125C14.2188 2.28125 13.6875 1.75 12.9375 1.4375C12.4583 1.26042 11.9375 1.16146 11.375 1.14062C10.5 1.10937 9.36979 1.09375 7.98438 1.09375ZM7.98438 11.1562C8.85938 11.1562 9.60677 10.8464 10.2266 10.2266C10.8464 9.60677 11.1562 8.85937 11.1562 7.98437C11.1562 7.10937 10.8464 6.36198 10.2266 5.74219C9.60677 5.1224 8.85938 4.8125 7.98438 4.8125C7.10938 4.8125 6.36198 5.1224 5.74219 5.74219C5.1224 6.36198 4.8125 7.10937 4.8125 7.98437C4.8125 8.85937 5.1224 9.60677 5.74219 10.2266C6.36198 10.8464 7.10938 11.1562 7.98438 11.1562ZM7.98438 3.92187C9.10938 3.92187 10.0677 4.31771 10.8594 5.10937C11.651 5.90104 12.0469 6.85937 12.0469 7.98437C12.0469 9.10937 11.651 10.0677 10.8594 10.8594C10.0677 11.651 9.10938 12.0469 7.98438 12.0469C6.85938 12.0469 5.90104 11.651 5.10938 10.8594C4.31771 10.0677 3.92188 9.10937 3.92188 7.98437C3.92188 6.85937 4.31771 5.90104 5.10938 5.10937C5.90104 4.31771 6.85938 3.92187 7.98438 3.92187ZM13.1719 3.76562C13.1719 4.02604 13.0781 4.2474 12.8906 4.42969C12.7031 4.61198 12.474 4.70312 12.2031 4.70312C11.9427 4.70312 11.7214 4.61198 11.5391 4.42969C11.3568 4.2474 11.2656 4.02604 11.2656 3.76562C11.2656 3.49479 11.3568 3.26562 11.5391 3.07812C11.7214 2.89062 11.9427 2.79687 12.2031 2.79687C12.4635 2.79687 12.6901 2.89323 12.8828 3.08594C13.0755 3.27865 13.1719 3.50521 13.1719 3.76562Z"/>
</symbol><symbol id="icon-tel-sprite" viewBox="0 0 20 20">
<g clip-path="url(#clip0)">
<path d="M17.9 9.4H9.40002V10.6H17.9L15.8 12.7L16.7 13.6L19.8 10.5C19.8974 10.3702 19.95 10.2123 19.95 10.05C19.95 9.88772 19.8974 9.72982 19.8 9.6L16.7 6.5L15.8 7.4L17.9 9.4Z"/>
<path d="M8.09995 19.4V13.2C8.0884 13.0447 8.02148 12.8987 7.91136 12.7886C7.80125 12.6785 7.65525 12.6116 7.49995 12.6H3.09995C3.1051 12.9167 3.23318 13.2189 3.45712 13.4428C3.68106 13.6668 3.9833 13.7949 4.29995 13.8H6.79995V18.8H3.09995C2.86319 18.8149 2.62585 18.7825 2.4017 18.7048C2.17756 18.6271 1.97109 18.5057 1.7943 18.3475C1.61751 18.1893 1.47393 17.9976 1.37189 17.7834C1.26986 17.5693 1.21142 17.337 1.19995 17.1V3.10001C1.19175 2.6373 1.3651 2.18977 1.68286 1.85331C2.00062 1.51686 2.43752 1.31824 2.89995 1.30001H6.79995V6.30001H4.39995C4.0833 6.30516 3.78106 6.43324 3.55712 6.65718C3.33318 6.88112 3.2051 7.18336 3.19995 7.50001H7.59995C7.75525 7.48846 7.90125 7.42154 8.01136 7.31142C8.12148 7.2013 8.1884 7.05531 8.19995 6.90001V0.600012C8.15226 0.443872 8.06111 0.304534 7.93715 0.198285C7.81319 0.0920352 7.66155 0.0232649 7.49995 1.23734e-05H3.09995C2.70593 -0.0133408 2.31315 0.0511002 1.94405 0.189651C1.57495 0.328202 1.23678 0.538145 0.948872 0.807477C0.660965 1.07681 0.428969 1.40025 0.266146 1.7593C0.103324 2.11835 0.0128689 2.50598 -4.64045e-05 2.90001V16.8C-0.0290254 17.1977 0.0245894 17.597 0.157426 17.9729C0.290263 18.3489 0.499448 18.6932 0.771825 18.9844C1.0442 19.2756 1.37388 19.5072 1.74012 19.6648C2.10637 19.8224 2.50126 19.9024 2.89995 19.9H7.49995C7.57344 19.915 7.64937 19.9133 7.7221 19.895C7.79484 19.8767 7.86253 19.8423 7.92015 19.7942C7.97777 19.7462 8.02385 19.6859 8.05497 19.6176C8.0861 19.5494 8.10147 19.475 8.09995 19.4Z"/>
</g>

</symbol><symbol id="icon-vkontakte-sprite" viewBox="0 0 23 16">
<path d="M0.0700912 3.99266C0.0700912 3.37082 0.493211 3.03552 1.33945 2.98675L4.60039 3.00503C4.81925 3.00503 4.96515 3.09648 5.03811 3.27938C5.37368 4.19385 5.74938 4.98334 6.16521 5.64785C6.58103 6.31237 7.12453 7.07747 7.79568 7.94317C7.85404 8.05291 7.94888 8.10778 8.08019 8.10778C8.18233 8.10778 8.26257 8.0651 8.32093 7.97975L8.38659 7.77857L8.40848 4.6145C8.40848 4.39503 8.34647 4.24871 8.22245 4.17556C8.09843 4.1024 7.86863 4.04753 7.53305 4.01095C7.27043 3.97437 7.13912 3.84025 7.13912 3.60859C7.13912 3.55981 7.14641 3.52323 7.161 3.49885C7.4674 2.70631 8.34282 2.31004 9.78726 2.31004L11.0129 2.29175C11.5673 2.29175 12.0269 2.40758 12.3916 2.63925C12.7564 2.87091 12.9388 3.2367 12.9388 3.73661V7.88831C13.0409 7.94927 13.1357 7.97975 13.2233 7.97975C13.4421 7.97975 13.6318 7.87002 13.7923 7.65054C15.3973 5.77283 16.2654 4.51696 16.3967 3.88293C16.3967 3.87073 16.4113 3.84025 16.4405 3.79148C16.5426 3.60859 16.7104 3.45008 16.9438 3.31595C17.1773 3.18183 17.3815 3.09039 17.5566 3.04161C17.615 3.01723 17.6806 3.00503 17.7536 3.00503H21.1459L21.3647 3.02332C21.6565 3.02332 21.8827 3.13916 22.0432 3.37082C22.1015 3.44398 22.1416 3.52323 22.1635 3.60859C22.1854 3.69394 22.2 3.77929 22.2073 3.86464C22.2146 3.94999 22.2182 3.99876 22.2182 4.01095V4.13898C22.1161 4.63889 21.8571 5.17233 21.4413 5.7393C21.0255 6.30627 20.4966 6.91897 19.8546 7.57739C19.2126 8.2358 18.8114 8.66865 18.6509 8.87593C18.5196 9.02225 18.4539 9.15637 18.4539 9.2783C18.4539 9.37584 18.5123 9.48558 18.629 9.60751L21.8243 12.9728C21.9994 13.1678 22.0869 13.3812 22.0869 13.6129C22.0869 13.8933 21.9556 14.125 21.693 14.3079C21.4304 14.4908 21.1167 14.5944 20.7519 14.6188L20.3799 14.6371H17.0533C17.0387 14.6371 17.0095 14.6401 16.9657 14.6462C16.9219 14.6523 16.8928 14.6554 16.8782 14.6554C16.5572 14.6554 16.2581 14.5396 15.9809 14.3079C15.8787 14.2103 15.193 13.491 13.9236 12.1497C13.8507 12.0644 13.7485 11.9851 13.6172 11.912C13.5589 12.1071 13.4823 12.3875 13.3874 12.7533C13.2926 13.1191 13.2233 13.3812 13.1795 13.5397L13.1139 13.8507C12.968 14.2774 12.6616 14.5335 12.1947 14.6188L11.8883 14.6371H9.74349C8.53249 14.6371 7.32514 14.1738 6.12144 13.2471C4.91773 12.3204 3.8344 11.1225 2.87144 9.65323C1.90848 8.18398 1.01117 6.47392 0.179519 4.52306C0.106567 4.36455 0.0700912 4.18775 0.0700912 3.99266ZM13.2233 8.72962C12.9169 8.72962 12.6397 8.65951 12.3916 8.51929C12.1436 8.37907 12.0196 8.18703 12.0196 7.94317V3.73661C12.0196 3.49275 11.9466 3.319 11.8007 3.21536C11.6548 3.11172 11.3995 3.0599 11.0347 3.0599L9.78726 3.09648C9.15988 3.09648 8.68569 3.18793 8.3647 3.37082C9.00668 3.62687 9.32767 4.04143 9.32767 4.6145V7.83344C9.29849 8.13826 9.15258 8.39126 8.88996 8.59245C8.62733 8.79363 8.33552 8.89422 8.01454 8.89422C7.57683 8.89422 7.24125 8.71742 7.0078 8.36383C5.86975 6.92506 5.02351 5.55945 4.46908 4.267L4.27211 3.79148L1.36134 3.77319C1.17166 3.77319 1.06588 3.78233 1.044 3.80062C1.02211 3.81891 1.01117 3.87073 1.01117 3.95608C1.01117 4.06582 1.02576 4.18165 1.05494 4.30358L1.51454 5.32779C2.74013 7.97366 4.07149 10.0586 5.50864 11.5828C6.94579 13.1069 8.35741 13.8689 9.74349 13.8689H11.932C12.0196 13.8689 12.0852 13.8476 12.129 13.8049C12.1728 13.7623 12.2093 13.6799 12.2384 13.558L12.2822 13.3751L12.698 11.7657C12.8148 11.5462 12.9169 11.3999 13.0044 11.3267C13.1649 11.1926 13.3546 11.1255 13.5735 11.1255C13.9236 11.1255 14.2811 11.3023 14.6458 11.6559L16.5061 13.6312C16.6228 13.7897 16.7469 13.8689 16.8782 13.8689H20.4893C20.927 13.8689 21.1459 13.7775 21.1459 13.5946C21.1459 13.5336 21.124 13.4727 21.0802 13.4117L17.9068 10.1013C17.6588 9.84527 17.5347 9.57093 17.5347 9.2783C17.5347 8.98567 17.6515 8.70523 17.8849 8.43699C18.0746 8.19313 18.443 7.78771 18.9901 7.22074C19.5373 6.65377 20.0151 6.12338 20.4236 5.62956C20.8322 5.13575 21.1021 4.68766 21.2334 4.28529L21.299 4.04753C21.2845 4.02314 21.2772 3.98352 21.2772 3.92865C21.2772 3.87378 21.2699 3.82806 21.2553 3.79148H17.8193C17.6004 3.86464 17.4253 3.97437 17.294 4.12069L17.1627 4.46819C16.7979 5.3095 15.8423 6.60805 14.2957 8.36383C13.9893 8.60769 13.6318 8.72962 13.2233 8.72962Z"/>
</symbol><symbol id="logo-text-sprite" viewBox="0 0 128 24">
<g>
<path d="M1.60253 22.0513C0.468358 20.3682 -0.0946573 18.3503 3.016e-05 16.3077V7.79487C-0.137317 5.73031 0.390444 3.67661 1.50238 1.94872C2.6041 0.615385 4.30676 0 6.81067 0C9.31458 0 10.9171 0.615385 11.9187 1.74359C13.006 3.17255 13.5409 4.96181 13.421 6.76923V8.82051H8.51333V6.46154C8.55297 5.76385 8.45065 5.06533 8.21286 4.41026C8.08576 4.14583 7.88431 3.9264 7.63443 3.78018C7.38455 3.63395 7.09766 3.56763 6.81067 3.58974C6.10958 3.58974 5.60879 3.79487 5.40848 4.30769C5.18191 5.03643 5.08025 5.79984 5.10801 6.5641V17.5385C5.05512 18.2799 5.19327 19.0227 5.50864 19.6923C5.70895 20.2051 6.20973 20.4103 6.91083 20.4103C7.61192 20.4103 8.01255 20.2051 8.21286 19.6923C8.44058 18.9992 8.54242 18.2692 8.51333 17.5385V15.0769H13.421V17.1282C13.5229 18.9651 12.9911 20.7803 11.9187 22.2564C10.9171 23.4872 9.21443 24.1026 6.81067 24.1026C4.40692 24 2.6041 23.3846 1.60253 22.0513Z" fill="#111111"/>
<path d="M19.3302 0.307617H25.0391L29.2457 23.6922H24.6385L23.8372 18.7692H20.5321L19.7308 23.6922H15.0235L19.3302 0.307617ZM23.4366 15.6922L22.2347 6.56403L21.0329 15.6922H23.4366Z" fill="#111111"/>
<path d="M32.7512 4.20505H29.3459V0.307617H41.2645V4.10249H37.8592V23.6922H32.7512V4.20505Z" fill="#111111"/>
<path d="M50.3787 0.307617H59.1925V2.76916H53.4836V10.4615H58.0908V12.8204H53.4836V21.4358H59.1925V23.7948H50.2786V0.307617H50.3787Z" fill="#111111"/>
<path d="M61.7966 0.307617H64L70.5102 15.7948V0.307617H73.1143V23.6922H71.1111L64.5008 7.69223V23.6922H61.7966V0.307617Z" fill="#111111"/>
<path d="M76.119 0.307617H84.9327V2.76916H79.2238V10.4615H83.831V12.8204H79.2238V21.4358H84.9327V23.7948H76.119V0.307617Z" fill="#111111"/>
<path d="M87.5368 0.3076H92.144C93.9564 0.179397 95.7575 0.685711 97.252 1.7435C98.3537 2.66657 98.8545 4.3076 98.8545 6.46145C98.8545 9.4358 97.9531 11.282 96.0501 11.8973L99.2551 23.5897H96.1503L93.1456 12.6153H90.6416V23.5897H87.4366V0.3076H87.5368ZM91.9437 10.3589C92.9762 10.446 94.0054 10.1553 94.8482 9.53837C95.4492 9.02555 95.7496 7.99991 95.7496 6.46145C95.7774 5.69719 95.6757 4.93378 95.4492 4.20504C95.2237 3.68211 94.8366 3.24964 94.3474 2.97427C93.6576 2.65236 92.9003 2.51137 92.144 2.56401H90.7418V10.2563H91.9437V10.3589Z" fill="#111111"/>
<path d="M102.861 21.9489C101.82 20.1556 101.331 18.0824 101.458 16.0002V8.20531C101.434 6.719 101.602 5.23592 101.959 3.79506C102.294 2.71836 102.962 1.78243 103.862 1.12839C104.981 0.450519 106.271 0.129161 107.568 0.205314C109.671 0.205314 111.174 0.718135 112.075 1.84634C113.112 3.33607 113.608 5.15002 113.477 6.97455V7.79506H110.473V7.07711C110.477 6.21813 110.41 5.36032 110.272 4.51301C110.188 3.97756 109.9 3.49816 109.471 3.17967C108.908 2.80128 108.24 2.62124 107.568 2.66685C106.85 2.61973 106.139 2.83809 105.565 3.28224C105.329 3.48554 105.137 3.73594 104.999 4.01811C104.861 4.30029 104.781 4.60829 104.764 4.92326C104.632 5.84017 104.565 6.76567 104.563 7.69249V16.4104C104.49 17.7386 104.694 19.0676 105.164 20.3079C105.565 21.1284 106.366 21.4361 107.568 21.4361C108.043 21.4966 108.524 21.4121 108.952 21.1931C109.379 20.9741 109.734 20.6304 109.972 20.2053C110.501 18.9083 110.741 17.5067 110.673 16.1027V14.4617H107.768V12.1028H113.577V23.6925H111.574L111.274 21.0258C111.011 21.9195 110.464 22.6977 109.72 23.2366C108.976 23.7756 108.078 24.0443 107.167 24.0002C106.34 24.05 105.513 23.8887 104.761 23.5307C104.01 23.1727 103.357 22.6291 102.861 21.9489Z" fill="#111111"/>
<path d="M119.988 15.4871L115.08 0.410156H118.085L121.59 11.6922L124.995 0.410156H128L123.092 15.4871V23.6922H120.088V15.4871H119.988Z" fill="#111111"/>
</g>

</symbol></svg>